<?xml version="1.0" encoding="utf-8"?>
<!-- Generator: Adobe Illustrator 22.1.0, SVG Export Plug-In . SVG Version: 6.00 Build 0)  -->
<svg version="1.1" id="_x32_" xmlns="http://www.w3.org/2000/svg" xmlns:xlink="http://www.w3.org/1999/xlink" x="0px" y="0px"
	 viewBox="0 0 512 512" style="enable-background:new 0 0 512 512;" xml:space="preserve">
<style type="text/css">
	.st0{fill:#4B4B4B;}
</style>
<g>
	<path class="st0" d="M503.7,101.3h-43.3V58c0-4.6-3.7-8.3-8.3-8.3h-16.8c-4.6,0-8.3,3.7-8.3,8.3v43.3h-43.3c-4.6,0-8.3,3.7-8.3,8.3
		v16.8c0,4.6,3.7,8.3,8.3,8.3h43.3v43.3c0,4.6,3.7,8.3,8.3,8.3H452c4.6,0,8.3-3.7,8.3-8.3v-43.3h43.3c4.6,0,8.3-3.7,8.3-8.3v-16.8
		C512,105,508.3,101.3,503.7,101.3z"/>
	<path class="st0" d="M500.8,239.7l-0.2-0.4l-0.3-0.4c-8.6-12.6-22.8-20.4-38.2-20.4h-79.9l-12.6-36.1l-0.4,0.1
		c-8.8-19.2-27.8-32.2-49.5-32.2H145c-2,0-4-1.1-5.2-3.7l0,0c-8.6-18.9-27.3-31.3-48.2-31.3H46.5c0,0,0,0-0.1,0
		c-15.1,0-29.1,7.5-37.7,19.7L8.1,136L8,136.3c-5.2,7.9-8,17-8,26.3c0,4.8,0.7,9.6,2.2,14.2h0l0,0l0,0.1l0,0.1v0l76.1,247.6v0l0.3,1
		c6.9,21.8,27.1,36.6,50,36.6l272.7,0c19.7,0,37.5-11.1,46.4-28.3l0.4,0.1L505.7,282l0.1-0.2l0-0.1l0,0c1.8-5.2,2.7-10.6,2.7-16
		C508.6,256.6,505.9,247.6,500.8,239.7L500.8,239.7L500.8,239.7z M472.6,270l-55,145.6l0,0.1c-2.4,6.9-8.9,11.4-16.2,11.4l-272.7,0
		c-7.5,0-14.2-4.8-16.4-12L35.8,166.4l0,0c-0.4-1.3-0.6-2.5-0.6-3.8c0-2.6,0.8-5.2,2.3-7.2l0,0c2.2-3.1,5.5-4.8,9-4.8h45.1
		c6.8,0,13.1,4,16.2,10.7c6.6,14.6,21.1,24.2,37.3,24.2h174.7c8.3,0,15.9,5.5,18.7,14.2l0.1,0.2l9,25.7H207.7
		c-20.3,0-38.2,13-45,32.1l-35.6,102.9l26.6,9.2l35.6-102.8l0,0.1c3-8.3,10.4-13.4,18.4-13.4h254.4c3.5,0,6.9,1.7,9.1,5
		c1.4,2,2.1,4.5,2.1,7C473.3,267.2,473.1,268.6,472.6,270z"/>
</g>
</svg>
