<?xml version="1.0" encoding="utf-8"?>
<!-- Generator: Adobe Illustrator 22.1.0, SVG Export Plug-In . SVG Version: 6.00 Build 0)  -->
<svg version="1.1" id="_x32_" xmlns="http://www.w3.org/2000/svg" xmlns:xlink="http://www.w3.org/1999/xlink" x="0px" y="0px"
	 viewBox="0 0 512 512" style="enable-background:new 0 0 512 512;" xml:space="preserve">
<style type="text/css">
	.st0{fill:#4B4B4B;}
</style>
<g>
	<path class="st0" d="M88.6,464.7c2.4,26.8,24.8,47.3,51.6,47.3h231.5c26.9,0,49.3-20.5,51.6-47.3L449,128.8H63L88.6,464.7z
		 M420.8,154.9l-23.5,307.5c-1.2,13.4-12.2,23.4-25.6,23.4H140.2c-13.4,0-24.4-10.1-25.6-23.1L91.1,154.9H420.8z"/>
	<path class="st0" d="M183,435.3c5.9-0.3,10.4-5.4,10-11.3l-10.1-202.2c-0.4-5.9-5.4-10.3-11.3-10s-10.4,5.4-10,11.3l10.1,202.2
		C172,431.2,177.1,435.7,183,435.3z"/>
	<path class="st0" d="M256,435.4c5.9,0,10.7-4.8,10.7-10.6V222.5c0-5.9-4.8-10.6-10.7-10.6c-5.9,0-10.7,4.8-10.7,10.6v202.2
		C245.3,430.6,250.1,435.4,256,435.4z"/>
	<path class="st0" d="M329,435.3c5.9,0.4,10.9-4.1,11.3-10l10.1-202.2c0.3-5.9-4.1-10.9-10-11.3s-10.9,4.1-11.3,10l-10.1,202.2
		C318.7,429.9,323.2,435,329,435.3z"/>
	<path class="st0" d="M439.1,64.5c0,0-34.1-5.7-43.3-8.5c-8.3-2.5-80.8-13.6-80.8-13.6l-2.7-19.3C310.4,9.9,299.5,0,286.6,0H256
		h-30.7c-12.8,0-23.7,9.9-25.6,23.2L197,42.5c0,0-72.5,11-80.8,13.6c-9.3,2.8-43.4,8.5-43.4,8.5c-10.3,2.8-17.5,12.7-17.5,23.9v21.9
		H256h200.7V88.4C456.7,77.2,449.5,67.4,439.1,64.5z M276.3,38.8h-40.6c-3.6,0-6.5-2.9-6.5-6.5s2.9-6.5,6.5-6.5h40.6
		c3.6,0,6.5,2.9,6.5,6.5S279.9,38.8,276.3,38.8z"/>
</g>
</svg>
