<?xml version="1.0" encoding="utf-8"?>
<!-- Generator: Adobe Illustrator 22.1.0, SVG Export Plug-In . SVG Version: 6.00 Build 0)  -->
<svg version="1.1" id="_x32_" xmlns="http://www.w3.org/2000/svg" xmlns:xlink="http://www.w3.org/1999/xlink" x="0px" y="0px"
	 viewBox="0 0 512 512" style="enable-background:new 0 0 512 512;" xml:space="preserve">
<style type="text/css">
	.st0{fill:#4B4B4B;}
</style>
<g>
	<path class="st0" d="M155.8,0v173.9h33.4V33.4h235.6l-74.9,50.7c-8.5,5.7-13.5,15.3-13.5,25.5v286.2H189.2V282.1h-33.4v147.2h180.6
		v70.9c0,4.4,2.4,8.4,6.3,10.5c3.9,2.1,8.6,1.8,12.2-0.6l119.3-80.7V0H155.8z"/>
	<path class="st0" d="M228.7,290.4c0,1.8,1.1,3.5,2.8,4.3c1.7,0.8,3.6,0.5,5-0.7l78-66l-78-66c-1.4-1.2-3.4-1.5-5-0.7
		c-1.7,0.8-2.8,2.5-2.8,4.3V199H37.8V257h190.9L228.7,290.4L228.7,290.4z"/>
</g>
</svg>
