<?xml version="1.0" encoding="utf-8"?>
<!-- Generator: Adobe Illustrator 22.1.0, SVG Export Plug-In . SVG Version: 6.00 Build 0)  -->
<svg version="1.1" id="_x32_" xmlns="http://www.w3.org/2000/svg" xmlns:xlink="http://www.w3.org/1999/xlink" x="0px" y="0px"
	 viewBox="0 0 512 512" style="enable-background:new 0 0 512 512;" xml:space="preserve">
<style type="text/css">
	.st0{fill:#4B4B4B;}
</style>
<g>
	<path class="st0" d="M446,92.2C405.3,49.8,348.5,22.6,285.6,20c-15.8-0.6-29.1,11.6-29.8,27.4c-0.6,15.8,11.6,29.1,27.4,29.8
		c47.7,1.9,90.4,22.5,121.5,54.7c31,32.2,50,75.8,50,124c0,49.5-20,94-52.4,126.5c-32.5,32.4-77,52.4-126.5,52.4
		c-49.5,0-94-20-126.5-52.4c-32.4-32.5-52.4-77-52.4-126.5c0-3.5,0.1-6.9,0.3-10.4l34.1,16.8c3.7,1.8,8,1.9,11.4,0.1
		c3.4-1.8,5.3-5.1,5.3-8.9l-3.4-149.8c-0.1-4.3-2.9-8.4-7.1-10.5c-4.2-2.1-9.2-1.8-12.6,0.7L4,182.4c-3,2.2-4.5,5.8-3.9,9.6
		c0.6,3.8,3.2,7.1,7,9l35.7,17.6c-1.9,12.2-3,24.6-3,37.3c0,65.1,26.5,124.3,69.2,166.9c42.6,42.7,101.8,69.2,166.9,69.1
		c65.1,0,124.3-26.5,166.9-69.1C485.5,380.2,512,321,512,255.9C512,192.4,486.8,134.6,446,92.2z"/>
</g>
</svg>
