<?xml version="1.0" encoding="utf-8"?>
<!-- Generator: Adobe Illustrator 22.1.0, SVG Export Plug-In . SVG Version: 6.00 Build 0)  -->
<svg version="1.1" id="_x32_" xmlns="http://www.w3.org/2000/svg" xmlns:xlink="http://www.w3.org/1999/xlink" x="0px" y="0px"
	 viewBox="0 0 512 512" style="enable-background:new 0 0 512 512;" xml:space="preserve">
<style type="text/css">
	.st0{fill:#4B4B4B;}
</style>
<g>
	<polygon class="st0" points="374.1,448.8 34,448.8 34,194.1 164.9,194.1 164.9,63.2 374.1,63.2 374.1,96.7 408.1,64 408.1,29.2 
		164.9,29.2 34,160.1 0,194.1 0,482.8 408.1,482.8 408.1,282.6 374.1,318 	"/>
	<path class="st0" d="M508.6,118.8l-51.3-51.3c-4.5-4.5-11.9-4.5-16.4,0L224.2,275.6c-1.3,1.3-2.3,3-2.9,4.8l-26.2,86.1
		c-2.7,8.9,5.6,17.1,14.4,14.4l88.9-27.1l210.2-218.7C513.1,130.6,513.1,123.3,508.6,118.8z M244,349.3l-16.9-18.4l11.7-38.4
		l29.1,15.7l15.7,29.1L244,349.3z M476,110.6L291.4,296.4l-11.7-11.7L465.5,100L476,110.6C476,110.6,476,110.6,476,110.6z"/>
</g>
</svg>
